<?xml version="1.0" standalone="no"?>
<!DOCTYPE svg PUBLIC "-//W3C//DTD SVG 20010904//EN"
 "http://www.w3.org/TR/2001/REC-SVG-20010904/DTD/svg10.dtd">
<svg version="1.0" xmlns="http://www.w3.org/2000/svg"
 width="1920.000000pt" height="1200.000000pt" viewBox="0 0 1920.000000 1200.000000"
 preserveAspectRatio="xMidYMid meet">

<g transform="translate(0.000000,1200.000000) scale(0.100000,-0.100000)"
fill="#000000" stroke="none">
<path d="M0 6000 l0 -6000 9600 0 9600 0 0 6000 0 6000 -9600 0 -9600 0 0
-6000z m4310 5310 c0 -5 -9 -10 -21 -10 -11 0 -17 5 -14 10 3 6 13 10 21 10 8
0 14 -4 14 -10z m270 -10 c0 -11 -4 -20 -10 -20 -5 0 -10 9 -10 20 0 11 5 20
10 20 6 0 10 -9 10 -20z m-41 -42 c-5 -18 -9 -34 -9 -35 0 -2 -4 -3 -10 -3 -5
0 -10 16 -10 35 0 28 4 35 19 35 17 0 19 -4 10 -32z m141 2 c0 -5 -7 -10 -16
-10 -8 0 -12 5 -9 10 3 6 10 10 16 10 5 0 9 -4 9 -10z m-73 -16 c6 -16 -15
-37 -28 -28 -10 6 1 44 12 44 6 0 12 -7 16 -16z m-141 -11 c7 -10 14 -26 14
-35 0 -21 20 -24 38 -6 9 9 12 6 12 -15 0 -29 29 -51 54 -41 23 9 20 23 -6 34
l-23 9 22 0 c32 1 53 12 53 26 0 21 17 27 32 12 7 -7 28 -19 46 -26 28 -12 35
-12 51 3 9 9 22 16 28 16 6 0 13 3 16 8 2 4 3 2 1 -5 -4 -18 22 -48 30 -35 11
18 30 14 55 -10 18 -16 27 -19 40 -11 27 17 71 4 71 -19 0 -15 5 -19 20 -15
10 3 24 -1 31 -9 10 -13 39 -20 39 -10 0 2 3 11 6 19 3 9 -3 16 -15 20 -12 3
-21 10 -21 16 0 16 21 14 40 -4 14 -13 22 -14 43 -4 21 9 30 9 42 -1 24 -20
17 -30 -17 -24 -23 4 -29 3 -19 -4 11 -8 9 -11 -9 -17 l-22 -7 21 -20 c28 -26
88 -22 83 6 -3 16 3 18 59 15 43 -3 63 0 66 9 3 6 -2 12 -11 12 -18 0 -21 15
-6 25 5 3 15 -5 22 -19 6 -14 17 -26 25 -26 7 0 13 -7 13 -16 0 -10 -6 -14
-15 -10 -8 3 -22 -2 -31 -11 -15 -16 -15 -17 2 -24 28 -11 86 -11 79 0 -8 14
13 24 33 16 15 -6 15 -8 -3 -15 -18 -8 -19 -9 -1 -9 14 -1 17 -6 12 -26 -5
-20 -3 -25 14 -25 13 0 20 7 20 20 0 11 5 20 10 20 6 0 10 -11 10 -25 0 -26 9
-29 48 -19 25 7 30 24 7 24 -8 0 -15 5 -15 10 0 6 4 10 9 10 5 0 17 3 27 7 14
5 16 3 11 -12 -4 -10 -5 -27 -1 -38 6 -18 7 -19 16 -4 11 21 28 22 28 2 0 -8
-5 -15 -11 -15 -8 0 -8 -5 1 -15 9 -10 9 -15 1 -15 -6 0 -11 -5 -11 -10 0 -18
30 -23 56 -10 24 13 49 5 26 -9 -16 -9 -28 -71 -14 -71 6 0 12 10 14 23 2 12
9 21 16 19 7 -1 15 4 18 13 5 12 8 12 20 0 8 -7 14 -20 14 -28 0 -21 12 -28
26 -16 10 9 15 7 20 -5 3 -9 10 -13 15 -10 5 3 6 -2 3 -10 -3 -8 -13 -17 -22
-19 -10 -3 -7 -5 8 -5 14 -1 37 -4 52 -8 22 -5 32 -1 47 17 11 13 23 21 27 16
4 -4 -2 -14 -14 -23 -12 -8 -22 -21 -22 -29 0 -7 -9 -17 -20 -20 -30 -9 -24
-22 10 -22 23 0 33 7 42 29 17 38 28 35 28 -7 0 -19 5 -35 10 -35 6 0 10 -9
10 -20 0 -15 7 -20 26 -20 19 0 25 -4 20 -15 -3 -9 6 -25 21 -39 16 -15 24
-30 20 -40 -4 -9 -1 -16 6 -16 7 0 25 -6 40 -12 20 -10 27 -20 27 -40 0 -25 4
-28 33 -28 l32 1 -24 20 c-28 23 -22 34 14 25 19 -5 25 -13 25 -32 0 -21 3
-25 18 -19 9 5 32 10 50 13 29 4 33 2 30 -14 -2 -15 -14 -20 -51 -22 -49 -3
-67 -22 -21 -22 19 0 25 -4 20 -15 -3 -8 4 -21 17 -30 16 -12 19 -17 9 -27 -7
-7 -12 -20 -12 -29 0 -13 7 -16 35 -14 23 2 43 -3 60 -17 17 -13 36 -19 56
-16 16 3 34 -1 39 -7 8 -9 -2 -11 -40 -7 -49 4 -56 0 -51 -31 1 -5 -8 -6 -19
-2 -16 5 -20 2 -20 -15 0 -14 9 -24 30 -31 17 -6 30 -17 30 -25 0 -19 13 -18
40 6 29 25 28 25 23 -7 -4 -24 -3 -25 7 -10 6 9 21 17 32 17 17 0 19 -3 10
-12 -7 -7 -12 -20 -12 -29 0 -9 -7 -22 -15 -29 -14 -11 -11 -17 21 -46 20 -19
44 -34 54 -34 10 0 23 -7 30 -15 10 -12 9 -16 -5 -21 -9 -4 -21 -2 -28 5 -14
14 -50 15 -42 0 4 -5 18 -14 31 -19 28 -11 32 -46 7 -53 -14 -4 -13 -5 3 -6
12 0 24 -8 28 -16 3 -8 13 -15 22 -15 14 0 16 7 11 41 -5 36 -4 38 9 22 7 -10
14 -25 14 -33 0 -9 9 -23 20 -33 21 -17 27 -37 11 -37 -14 0 -43 -70 -37 -87
3 -8 -3 -26 -14 -40 -24 -31 -19 -42 8 -17 16 16 25 34 38 74 0 3 7 21 14 39
12 30 14 32 20 15 4 -11 1 -29 -8 -42 -11 -17 -12 -26 -3 -35 6 -6 11 -19 11
-28 0 -22 56 -63 75 -55 8 3 15 1 15 -4 0 -5 -19 -10 -42 -12 -36 -3 -44 -7
-46 -26 -2 -14 4 -29 13 -36 15 -11 14 -13 -8 -23 -19 -9 -24 -17 -20 -33 5
-17 11 -20 31 -15 24 6 25 5 20 -44 -3 -28 -1 -51 4 -51 9 0 32 -50 29 -63 -1
-5 8 -7 20 -5 12 2 24 -3 26 -9 3 -8 -3 -13 -14 -13 -21 0 -63 -27 -63 -41 0
-5 10 -9 21 -9 17 0 19 -3 10 -14 -8 -10 -9 -16 -1 -21 5 -3 10 -19 10 -35 0
-15 7 -30 15 -34 8 -3 15 -12 15 -21 0 -8 -7 -15 -15 -15 -8 0 -15 -4 -15 -9
0 -5 -8 -11 -18 -14 -25 -6 -33 -41 -15 -66 22 -32 36 -26 28 12 l-6 32 18
-27 c10 -16 21 -28 25 -28 15 0 8 -38 -7 -44 -16 -6 -20 -33 -9 -60 8 -21 24
-20 24 2 0 9 5 24 11 32 8 11 9 2 4 -33 -5 -36 -2 -51 9 -63 9 -8 16 -25 15
-37 0 -12 -3 -16 -6 -9 -8 20 -31 14 -35 -10 -4 -29 -23 -25 -23 5 0 12 -6 31
-13 42 -11 17 -12 14 -7 -28 4 -26 13 -64 21 -83 15 -35 14 -35 -8 -32 -17 2
-22 -2 -23 -17 0 -27 -26 -65 -44 -65 -11 0 -10 -5 4 -20 18 -20 18 -21 -3
-27 -12 -3 -22 -8 -22 -12 0 -3 -3 -16 -6 -28 -5 -18 -3 -21 14 -16 28 7 35
-11 12 -32 -23 -21 -27 -55 -5 -55 17 0 34 -30 28 -48 -3 -8 4 -16 16 -19 28
-7 27 -17 -4 -31 -23 -11 -25 -10 -25 12 0 13 -8 27 -17 31 -17 7 -16 8 2 15
19 7 19 7 -3 19 -23 12 -23 12 -17 -33 l7 -46 -38 0 c-38 -1 -38 -1 -15 -14
18 -10 21 -15 10 -20 -8 -3 -2 -4 14 -2 21 2 27 -1 27 -15 0 -11 -6 -19 -12
-19 -10 0 -10 -2 0 -9 11 -6 9 -9 -6 -13 -11 -3 -25 -1 -31 5 -7 7 -18 7 -36
-1 -21 -10 -24 -14 -13 -26 9 -9 15 -10 20 -3 4 6 18 -2 37 -20 l30 -30 -25
-14 c-22 -11 -27 -11 -34 1 -8 12 -10 10 -10 -8 0 -12 -7 -25 -15 -28 -13 -5
-28 -35 -30 -59 0 -5 -8 -11 -19 -13 -16 -3 -18 1 -14 31 3 29 1 33 -14 29
-10 -2 -18 -11 -18 -19 0 -29 32 -81 53 -88 17 -5 18 -8 7 -12 -8 -3 -18 -11
-22 -17 -5 -7 -8 -5 -8 4 0 16 -69 54 -79 44 -3 -3 1 -9 8 -13 7 -5 11 -13 8
-18 -3 -5 9 -17 27 -27 19 -10 39 -29 45 -42 14 -31 1 -31 -33 1 -31 29 -45
31 -72 10 -10 -8 -30 -15 -44 -16 -21 -1 -19 -3 10 -10 19 -4 47 -11 63 -15
36 -9 35 -33 -3 -41 -17 -3 -35 -14 -41 -25 -6 -12 -19 -18 -32 -16 -18 2 -22
-2 -22 -26 0 -25 -5 -31 -35 -39 -55 -14 -96 -77 -50 -77 11 0 20 -6 20 -14 0
-19 -17 -29 -25 -16 -11 18 -22 11 -32 -22 -8 -31 -12 -33 -47 -30 -35 3 -37
2 -31 -17 7 -25 -7 -28 -25 -6 -20 24 -36 2 -18 -24 8 -12 18 -18 21 -15 4 4
13 1 22 -6 18 -15 45 -6 45 15 0 8 5 15 10 15 6 0 10 -7 10 -15 0 -8 -4 -15
-10 -15 -5 0 -9 -5 -7 -11 1 -7 -15 -12 -41 -13 -23 0 -42 2 -42 7 0 13 -40
-17 -46 -35 -6 -21 -76 -37 -82 -19 -2 6 -10 11 -18 11 -9 0 -14 -12 -14 -36
0 -31 -3 -35 -20 -30 -11 3 -29 9 -40 12 -14 4 -20 1 -20 -10 0 -8 9 -18 20
-21 24 -8 25 -18 5 -35 -13 -10 -19 -9 -35 5 -15 14 -23 16 -32 7 -8 -8 -4
-20 16 -47 31 -41 29 -58 -3 -26 -25 25 -41 27 -41 6 0 -16 -40 -21 -56 -6 -5
5 -18 5 -29 0 -19 -8 -19 -8 3 -15 26 -7 28 -17 7 -34 -13 -11 -18 -10 -28 4
-22 30 -72 -12 -52 -44 4 -6 -3 -9 -17 -7 -31 3 -37 -30 -6 -42 30 -12 2 -14
-38 -2 -27 8 -35 5 -58 -20 -18 -19 -32 -26 -44 -21 -16 6 -16 7 1 10 9 2 17
10 17 17 0 15 -23 11 -47 -8 -9 -6 -18 -5 -27 2 -9 7 -17 8 -20 2 -3 -5 -1
-11 5 -13 9 -3 8 -14 -2 -41 -17 -47 -25 -47 -23 0 0 21 -5 44 -13 51 -7 7
-13 27 -13 43 0 16 -4 29 -10 29 -5 0 -10 -18 -10 -40 0 -22 5 -40 10 -40 15
0 12 -21 -7 -42 -21 -23 -36 -23 -28 1 3 11 -1 26 -10 35 -17 17 -40 22 -31 7
4 -5 -14 -7 -38 -5 -57 5 -66 -9 -30 -47 20 -21 34 -27 48 -23 21 6 21 6 1
-10 -29 -22 -44 -20 -75 12 -37 39 -57 45 -63 20 -4 -15 -11 -19 -26 -15 -17
4 -21 0 -21 -19 0 -15 -6 -24 -15 -24 -8 0 -15 7 -15 15 0 21 -23 19 -53 -5
-14 -11 -28 -20 -31 -20 -3 0 -6 9 -6 20 0 11 -7 20 -15 20 -11 0 -14 -7 -9
-24 8 -32 -15 -45 -33 -20 -8 10 -22 18 -33 16 -10 -2 -21 2 -24 7 -4 6 -13 8
-21 4 -8 -3 -15 0 -15 6 0 6 10 11 23 12 21 1 21 1 -3 9 -42 14 -70 11 -70 -6
0 -8 -4 -13 -9 -10 -4 3 -6 -6 -3 -19 4 -25 -11 -35 -23 -15 -9 14 -33 12 -38
-2 -2 -7 -3 -1 -1 14 5 42 -14 43 -31 2 -15 -36 -16 -36 -35 -19 -17 16 -20
16 -20 2 0 -9 -10 -17 -22 -19 -13 -2 -27 -13 -33 -25 -12 -28 -25 -30 -25 -4
0 19 -26 34 -50 29 -10 -3 -16 5 -37 41 -1 2 -21 5 -43 7 -32 2 -43 -2 -59
-22 -21 -27 -33 -20 -24 14 4 15 13 22 32 22 25 1 25 1 -8 15 -42 19 -51 19
-51 0 0 -11 -11 -15 -35 -15 -23 0 -38 -6 -42 -16 -4 -12 -8 -11 -17 8 -8 16
-21 23 -41 24 -17 1 -34 3 -40 4 -5 2 -19 3 -30 4 -13 1 -21 9 -23 24 -2 12
-10 22 -18 22 -8 0 -14 8 -14 17 0 15 -1 15 -13 -1 -9 -12 -30 -20 -58 -22
-36 -3 -50 1 -73 21 -34 29 -39 30 -60 9 -15 -14 -16 -13 -16 15 0 16 5 33 11
37 8 4 1 12 -16 22 -26 13 -27 16 -12 27 20 14 22 26 5 21 -49 -15 -68 -16
-68 -1 0 8 7 15 16 15 14 0 14 1 0 16 -9 8 -16 20 -16 25 0 6 -5 7 -10 4 -8
-5 -7 -11 1 -21 8 -10 8 -14 1 -14 -6 0 -9 -7 -6 -15 4 -8 1 -15 -4 -15 -6 0
-17 7 -26 15 -8 8 -19 15 -25 15 -14 0 -14 -37 -1 -45 15 -9 12 -25 -5 -25
-10 0 -15 11 -15 35 0 29 5 37 26 45 14 6 23 14 20 18 -7 11 -66 3 -66 -9 0
-5 -7 -9 -15 -9 -8 0 -15 7 -15 15 0 24 -20 17 -21 -7 0 -23 -1 -23 -10 -2 -6
11 -24 25 -40 31 -33 13 -39 33 -8 33 11 0 18 4 15 8 -7 12 -66 13 -66 1 0 -5
-11 -9 -25 -9 -14 0 -25 5 -25 10 0 6 7 10 15 10 8 0 15 9 15 20 0 21 -29 29
-31 8 -1 -7 -5 7 -10 30 -6 33 -5 49 6 66 21 31 5 52 -26 35 -20 -11 -21 -14
-7 -17 15 -3 16 -7 7 -24 -6 -11 -9 -29 -6 -39 4 -16 0 -19 -29 -19 -31 0 -34
3 -34 30 0 27 -3 30 -31 30 -32 0 -68 31 -69 59 0 11 4 11 18 -2 10 -10 22
-14 25 -11 4 4 9 -1 13 -10 3 -9 15 -16 25 -16 10 0 19 -4 19 -10 0 -5 7 -10
15 -10 21 0 19 4 -20 47 -19 21 -38 46 -41 56 -4 14 -12 17 -29 13 -13 -3 -27
-1 -31 5 -5 8 -11 6 -21 -7 -12 -16 -15 -17 -23 -4 -5 8 -6 18 -4 22 3 4 -5 8
-18 8 -31 0 -59 19 -39 27 11 5 11 7 0 14 -11 6 -11 11 -1 21 19 19 15 40 -7
33 -10 -3 -24 1 -31 10 -7 8 -21 15 -31 15 -15 0 -19 8 -19 40 0 29 -4 40 -15
40 -18 0 -20 -21 -3 -38 19 -19 1 -25 -31 -11 -17 8 -31 16 -31 19 0 3 18 16
40 30 47 29 50 40 12 40 -34 0 -52 16 -52 48 0 18 5 23 23 20 14 -2 22 2 22
12 0 8 -10 16 -22 18 -13 2 -23 -2 -23 -9 0 -7 -8 -5 -21 7 -17 15 -20 28 -17
66 3 43 1 48 -17 48 -18 0 -20 -5 -17 -42 3 -24 8 -45 13 -48 5 -3 -1 -14 -13
-24 -21 -18 -21 -18 -15 12 5 23 2 32 -11 37 -16 6 -16 7 1 19 25 19 21 26
-13 26 -20 0 -30 -5 -30 -15 0 -8 -4 -15 -10 -15 -5 0 -10 9 -10 20 0 16 7 20
33 21 l32 1 -35 10 c-31 9 -33 11 -15 19 11 4 30 8 43 8 25 1 30 26 6 35 -8 3
-12 10 -9 16 8 12 -37 13 -51 1 -11 -11 -62 -26 -52 -16 4 5 3 15 -4 22 -9 12
-6 19 20 40 36 27 43 49 12 33 -11 -5 -29 -15 -40 -20 -16 -8 -20 -7 -20 8 0
10 5 23 12 30 8 8 8 15 -2 27 -12 14 -11 18 1 26 10 6 10 9 2 9 -7 0 -13 10
-13 22 0 17 3 19 12 10 16 -16 39 -15 32 2 -3 8 -25 19 -50 25 -24 6 -44 14
-44 17 0 3 11 3 25 0 34 -9 33 16 0 34 -28 15 -32 55 -5 55 8 0 14 -6 12 -13
-2 -14 14 -16 23 -3 9 15 -38 53 -59 47 -11 -3 -28 5 -42 19 -31 31 -30 39 2
32 26 -5 26 -4 20 41 -3 25 -10 50 -15 56 -6 7 -6 17 -1 26 7 10 10 11 10 3 0
-7 7 -13 16 -13 12 0 14 7 9 33 -9 40 -22 57 -46 57 -11 0 -19 4 -19 10 0 5
-16 17 -36 25 -30 12 -34 18 -24 30 10 12 15 12 33 -5 25 -24 67 -27 67 -5 0
8 -4 15 -9 15 -4 0 -14 21 -20 48 -7 26 -17 55 -22 64 -5 10 -9 24 -9 33 0 8
-9 30 -20 49 l-19 35 32 -6 c18 -3 40 -10 50 -15 13 -7 17 -4 17 12 0 13 -7
20 -19 20 -10 0 -22 7 -25 16 -5 13 -1 15 18 10 29 -7 56 18 38 36 -9 9 -12 8
-12 -5 0 -13 -5 -15 -22 -8 -13 5 -23 14 -23 21 0 7 10 16 23 21 12 5 22 5 22
0 0 -4 11 -6 25 -3 15 2 25 11 25 21 -1 18 -50 59 -50 41 0 -6 -4 -8 -10 -5
-5 3 -10 15 -10 26 0 15 -7 19 -32 19 -30 1 -31 2 -13 12 11 7 27 13 35 13 8
1 23 2 33 3 27 3 22 48 -5 56 -27 7 -68 7 -50 -1 6 -2 10 -9 7 -13 -8 -13 -35
-1 -35 15 0 7 14 15 31 19 22 4 30 10 25 21 -3 9 3 19 15 25 20 11 20 11 -2
50 -19 33 -21 44 -11 65 10 22 15 24 33 15 12 -7 18 -18 15 -26 -7 -17 2 -18
37 -1 24 11 38 29 20 26 -22 -4 -33 3 -33 17 0 11 6 15 20 11 11 -3 23 -1 26
4 6 10 -4 12 -61 11 -23 0 -30 2 -17 5 21 4 49 49 38 61 -8 8 14 43 24 37 4
-3 6 4 3 15 -3 13 -14 20 -29 20 -12 0 -26 5 -29 10 -3 6 1 10 10 10 12 0 14
4 6 18 -7 14 -6 25 4 40 9 11 11 22 5 24 -5 2 -6 9 -1 17 13 20 31 4 31 -28 0
-31 23 -57 40 -46 13 8 13 35 0 35 -5 0 -10 5 -10 10 0 6 6 10 14 10 9 0 12 7
9 20 -4 15 0 20 16 20 23 0 42 31 23 38 -7 2 -12 16 -12 32 0 24 4 28 35 32
19 2 37 -1 39 -7 2 -5 5 -2 5 8 1 10 -6 17 -16 17 -10 0 -26 12 -36 26 -10 13
-15 23 -10 22 4 -1 18 2 31 6 19 6 21 10 11 22 -6 8 -9 15 -5 15 23 5 33 4 47
-3 16 -7 86 19 76 29 -3 2 -36 6 -73 9 -105 7 -114 8 -114 17 0 4 6 7 13 7 9
0 8 3 -2 9 -11 7 -11 10 0 17 7 4 14 3 17 -4 2 -7 17 -12 32 -12 16 0 32 -4
35 -10 10 -16 51 -12 66 6 11 14 10 15 -6 12 -26 -4 -33 30 -8 39 10 3 22 12
26 20 4 7 19 13 32 13 14 0 25 4 25 9 0 5 -8 7 -19 4 -15 -4 -19 2 -23 34 -6
46 -1 58 18 42 10 -8 17 -7 29 4 21 22 19 36 -5 30 -21 -6 -25 3 -11 26 8 13
12 13 26 1 14 -12 18 -12 26 1 5 8 6 20 4 28 -3 8 2 22 12 33 9 10 18 29 20
41 5 31 19 41 60 44 36 2 73 23 41 23 -8 0 -22 8 -29 17 -13 15 -12 16 9 11
24 -7 31 7 7 16 -21 8 -19 26 3 26 14 0 15 2 2 10 -17 11 -11 12 48 10 37 -1
42 1 42 20 0 24 46 78 57 67 4 -4 6 -28 4 -52 -1 -27 2 -45 8 -45 6 0 11 16
11 35 0 32 2 35 19 25 16 -8 20 -7 20 7 1 72 4 93 16 93 17 0 25 23 25 67 0
28 3 34 16 29 9 -3 27 -9 40 -12 13 -3 24 -10 24 -15 0 -5 -11 -7 -25 -3 -28
7 -33 -7 -10 -26 24 -20 17 -32 -15 -25 -19 4 -30 3 -30 -4 0 -6 9 -11 19 -11
15 0 19 -6 18 -26 -1 -15 3 -28 8 -30 13 -5 35 42 35 73 0 18 6 23 28 23 35 0
60 15 39 23 -10 4 -13 13 -10 27 5 18 11 21 32 17 35 -7 53 4 41 23 -15 24
-12 30 16 30 14 0 23 -4 19 -10 -11 -18 47 -11 61 8 13 16 13 16 14 0 0 -10 5
-18 10 -18 6 0 10 8 8 18 -2 12 5 18 25 20 17 2 27 -1 27 -10 0 -7 9 0 19 16
11 16 27 34 36 39 14 7 12 12 -16 33 -26 19 -29 24 -13 24 10 0 30 -12 43 -25
22 -24 90 -37 76 -15 -3 6 4 10 18 10 14 0 30 7 37 15 7 8 19 15 27 15 8 0 21
7 29 15 17 17 74 21 74 5 0 -14 43 -13 58 2 9 9 17 8 37 -2 22 -12 27 -11 44
4 12 11 21 14 26 7 10 -18 39 -13 53 9 9 15 24 20 60 22 l47 1 -42 4 c-48 5
-59 23 -14 23 17 0 33 5 36 10 3 6 0 10 -7 10 -10 0 -9 3 2 10 8 5 11 12 7 16
-4 4 -13 2 -19 -4 -16 -16 -28 -15 -28 1 0 12 19 37 28 37 3 0 11 -8 18 -17z
m594 8 c0 -5 -7 -14 -15 -21 -16 -14 -18 -10 -9 14 6 17 24 22 24 7z m-180
-21 c0 -19 -11 -26 -23 -14 -8 8 3 34 14 34 5 0 9 -9 9 -20z m35 2 c0 -18 -20
-15 -23 4 -3 10 1 15 10 12 7 -3 13 -10 13 -16z m-675 -32 c0 -5 -9 -10 -19
-10 -11 0 -23 5 -26 10 -4 6 5 10 19 10 14 0 26 -4 26 -10z m123 -4 c6 -15 -1
-26 -15 -26 -4 0 -8 9 -8 20 0 23 15 27 23 6z m838 -13 c-12 -20 -14 -14 -5
12 4 9 9 14 11 11 3 -2 0 -13 -6 -23z m-176 7 c3 -5 1 -10 -4 -10 -6 0 -11 5
-11 10 0 6 2 10 4 10 3 0 8 -4 11 -10z m-1025 -20 c0 -5 -5 -10 -11 -10 -5 0
-7 5 -4 10 3 6 8 10 11 10 2 0 4 -4 4 -10z m191 -6 c16 -14 25 -15 63 -5 64
16 76 14 41 -7 -34 -21 -131 -36 -140 -21 -7 10 3 49 12 49 4 0 15 -7 24 -16z
m-208 -52 c19 -21 13 -32 -18 -32 -29 0 -36 9 -24 31 12 24 22 24 42 1z m1217
-2 c0 -5 -4 -10 -10 -10 -5 0 -10 5 -10 10 0 6 5 10 10 10 6 0 10 -4 10 -10z
m300 -8 c0 -13 -12 -22 -22 -16 -10 6 -1 24 13 24 5 0 9 -4 9 -8z m40 -42 c0
-5 -4 -10 -10 -10 -5 0 -10 5 -10 10 0 6 5 10 10 10 6 0 10 -4 10 -10z m-1880
-26 c0 -8 -4 -12 -10 -9 -5 3 -10 10 -10 16 0 5 5 9 10 9 6 0 10 -7 10 -16z
m140 7 c0 -6 -4 -13 -10 -16 -5 -3 -10 1 -10 9 0 9 5 16 10 16 6 0 10 -4 10
-9z m1960 -21 c0 -5 -4 -10 -10 -10 -5 0 -10 5 -10 10 0 6 5 10 10 10 6 0 10
-4 10 -10z m-2100 -20 c0 -5 -2 -10 -4 -10 -3 0 -8 5 -11 10 -3 6 -1 10 4 10
6 0 11 -4 11 -10z m2060 -25 c0 -3 -9 -5 -20 -5 -11 0 -20 7 -20 15 0 13 4 14
20 5 11 -6 20 -13 20 -15z m100 -60 c0 -14 -4 -25 -9 -25 -12 0 -23 29 -15 41
10 18 24 9 24 -16z m80 -45 c0 -5 -12 -10 -27 -10 -22 0 -25 2 -13 10 20 13
40 13 40 0z m-2552 -82 c-3 -7 -13 -15 -24 -17 -10 -2 -24 -11 -31 -20 -8 -10
-12 -11 -13 -4 0 20 33 53 53 53 10 0 17 -5 15 -12z m2713 2 c29 -16 23 -27
-11 -22 -29 4 -37 12 -23 25 8 9 11 9 34 -3z m-2854 -52 c-3 -8 -6 -5 -6 6 -1
11 2 17 5 13 3 -3 4 -12 1 -19z m2833 -28 c0 -5 -7 -10 -15 -10 -8 0 -15 5
-15 10 0 6 7 10 15 10 8 0 15 -4 15 -10z m63 -61 c6 -4 5 -9 -1 -13 -11 -7
-44 38 -35 48 4 4 11 -1 17 -11 5 -10 14 -21 19 -24z m57 -24 c12 8 23 -13 16
-32 -5 -12 -9 -13 -20 -4 -10 8 -16 9 -21 1 -9 -15 -25 -12 -25 4 0 8 7 16 15
20 8 3 16 13 16 23 1 17 2 17 6 0 2 -9 8 -15 13 -12z m-3026 -2 c-5 -5 -12
-12 -16 -18 -4 -6 -8 -2 -8 8 0 9 7 17 17 17 9 0 12 -3 7 -7z m-44 -52 c0 -6
-4 -13 -10 -16 -5 -3 -10 1 -10 9 0 9 5 16 10 16 6 0 10 -4 10 -9z m3310 -113
c0 -6 -7 -7 -16 -4 -9 3 -18 6 -20 6 -3 0 -3 4 1 10 7 11 35 2 35 -12z m-3360
-28 c0 -5 -4 -10 -9 -10 -6 0 -13 5 -16 10 -3 6 1 10 9 10 9 0 16 -4 16 -10z
m3360 -55 c0 -16 -17 -19 -44 -9 -26 10 -18 24 14 24 20 0 30 -5 30 -15z
m-3456 -136 c-7 -11 -34 -12 -34 -1 0 14 11 21 26 15 8 -3 11 -9 8 -14z m3671
11 c-3 -5 -12 -10 -18 -10 -7 0 -6 4 3 10 19 12 23 12 15 0z m-3722 -43 c-2
-4 -11 -3 -19 4 -12 10 -12 14 -2 20 13 9 30 -10 21 -24z m3657 -107 c0 -5 -7
-10 -16 -10 -8 0 -12 5 -9 10 3 6 10 10 16 10 5 0 9 -4 9 -10z m37 -17 c-9 -9
-19 -14 -23 -11 -10 10 6 28 24 28 15 0 15 -1 -1 -17z m-3819 -125 c16 -16 15
-28 -3 -28 -8 0 -15 2 -15 4 0 2 -3 11 -6 20 -7 19 7 21 24 4z m-125 -38 c6
-24 -3 -32 -23 -20 -11 7 -11 11 -1 24 17 20 18 20 24 -4z m77 16 c0 -9 -30
-14 -35 -6 -4 6 3 10 14 10 12 0 21 -2 21 -4z m-73 -98 c-3 -8 -6 -5 -6 6 -1
11 2 17 5 13 3 -3 4 -12 1 -19z m4233 -208 c0 -5 -4 -10 -9 -10 -6 0 -13 5
-16 10 -3 6 1 10 9 10 9 0 16 -4 16 -10z m2 -374 c13 -19 9 -23 -22 -18 -28 4
-39 20 -24 35 8 7 37 -3 46 -17z m-4242 -36 c0 -5 -5 -10 -11 -10 -5 0 -7 5
-4 10 3 6 8 10 11 10 2 0 4 -4 4 -10z m-83 -6 c-3 -3 -12 -4 -19 -1 -8 3 -5 6
6 6 11 1 17 -2 13 -5z m3 -28 c0 -3 -4 -8 -10 -11 -5 -3 -10 -1 -10 4 0 6 5
11 10 11 6 0 10 -2 10 -4z m4400 -46 c0 -5 -4 -10 -9 -10 -6 0 -13 5 -16 10
-3 6 1 10 9 10 9 0 16 -4 16 -10z m-4473 -6 c-3 -3 -12 -4 -19 -1 -8 3 -5 6 6
6 11 1 17 -2 13 -5z m4438 -193 c3 -5 1 -12 -5 -16 -5 -3 -10 1 -10 9 0 18 6
21 15 7z m-4395 -21 c0 -5 -4 -10 -10 -10 -5 0 -10 5 -10 10 0 6 5 10 10 10 6
0 10 -4 10 -10z m50 -200 c0 -5 -4 -10 -9 -10 -6 0 -13 5 -16 10 -3 6 1 10 9
10 9 0 16 -4 16 -10z m4280 -49 c0 -19 -22 -23 -38 -7 -15 15 -14 16 11 16 15
0 27 -4 27 -9z m-4220 -251 c0 -5 -5 -10 -11 -10 -5 0 -7 5 -4 10 3 6 8 10 11
10 2 0 4 -4 4 -10z m20 -44 c0 -3 -4 -8 -10 -11 -5 -3 -10 -1 -10 4 0 6 5 11
10 11 6 0 10 -2 10 -4z m53 -47 c-5 -5 -20 -5 -33 -2 l-25 7 25 6 c28 8 46 2
33 -11z m4094 -61 c-3 -8 -6 -5 -6 6 -1 11 2 17 5 13 3 -3 4 -12 1 -19z m-27
-142 c0 -3 -4 -8 -10 -11 -5 -3 -10 -1 -10 4 0 6 5 11 10 11 6 0 10 -2 10 -4z
m-140 -76 c0 -11 -4 -20 -10 -20 -5 0 -10 9 -10 20 0 11 5 20 10 20 6 0 10 -9
10 -20z m60 0 c0 -5 -4 -10 -10 -10 -5 0 -10 5 -10 10 0 6 5 10 10 10 6 0 10
-4 10 -10z m-3850 -49 c0 -6 -4 -13 -10 -16 -5 -3 -10 1 -10 9 0 9 5 16 10 16
6 0 10 -4 10 -9z m3897 -13 c-3 -8 -6 -5 -6 6 -1 11 2 17 5 13 3 -3 4 -12 1
-19z m-3897 -48 c0 -5 -4 -10 -10 -10 -5 0 -10 5 -10 10 0 6 5 10 10 10 6 0
10 -4 10 -10z m100 -10 c0 -5 -7 -10 -15 -10 -8 0 -15 5 -15 10 0 6 7 10 15
10 8 0 15 -4 15 -10z m3670 -24 c0 -11 -19 -15 -25 -6 -3 5 1 10 9 10 9 0 16
-2 16 -4z m-3660 -41 c0 -8 -4 -15 -10 -15 -5 0 -7 7 -4 15 4 8 8 15 10 15 2
0 4 -7 4 -15z m3485 -85 c3 -5 1 -10 -4 -10 -6 0 -11 -9 -11 -20 0 -12 -7 -20
-17 -20 -9 0 -31 -5 -50 -12 -18 -6 -36 -8 -40 -4 -11 11 26 36 53 36 13 0 24
8 27 20 5 21 31 27 42 10z m-3360 -80 c2 -11 -6 -15 -26 -14 -36 1 -48 12 -29
25 21 13 53 7 55 -11z m3289 -45 c5 -16 1 -21 -14 -21 -22 0 -22 1 -14 34 7
25 18 20 28 -13z m-3194 -95 c0 -5 -7 -10 -15 -10 -8 0 -15 5 -15 10 0 6 7 10
15 10 8 0 15 -4 15 -10z m2880 -130 c0 -22 -20 -26 -38 -8 -19 19 -14 28 13
28 18 0 25 -5 25 -20z m147 14 c-3 -3 -12 -4 -19 -1 -8 3 -5 6 6 6 11 1 17 -2
13 -5z m-130 -66 c-3 -8 -6 -5 -6 6 -1 11 2 17 5 13 3 -3 4 -12 1 -19z m-2617
-36 c0 -14 -11 -21 -26 -15 -21 8 -17 23 6 23 11 0 20 -4 20 -8z m60 -2 c0 -5
-4 -10 -10 -10 -5 0 -10 5 -10 10 0 6 5 10 10 10 6 0 10 -4 10 -10z m2500 -5
c0 -8 -4 -15 -10 -15 -5 0 -10 7 -10 15 0 8 5 15 10 15 6 0 10 -7 10 -15z
m-35 -65 c3 -5 2 -10 -4 -10 -5 0 -13 5 -16 10 -3 6 -2 10 4 10 5 0 13 -4 16
-10z m-141 -16 c9 -24 2 -26 -12 -4 -7 11 -8 20 -3 20 5 0 12 -7 15 -16z
m-2072 -24 c7 -11 19 -20 26 -20 7 0 10 -4 7 -10 -10 -16 -45 -12 -45 5 0 8
-9 15 -20 15 -22 0 -27 15 -7 23 21 9 27 7 39 -13z m2031 -27 c-7 -2 -21 -2
-30 0 -10 3 -4 5 12 5 17 0 24 -2 18 -5z m-449 -114 c-7 -11 -54 -12 -54 -1 0
15 10 19 35 14 14 -2 22 -8 19 -13z m-1594 -9 c0 -5 -5 -10 -11 -10 -5 0 -7 5
-4 10 3 6 8 10 11 10 2 0 4 -4 4 -10z m240 -20 c0 -5 -9 -10 -21 -10 -11 0
-17 5 -14 10 3 6 13 10 21 10 8 0 14 -4 14 -10z m1513 -17 c-7 -2 -19 -2 -25
0 -7 3 -2 5 12 5 14 0 19 -2 13 -5z m-1216 -30 c4 -10 11 -21 17 -25 13 -9
-11 -28 -34 -27 -11 0 -9 3 3 8 17 6 17 8 3 20 -18 15 -22 41 -6 41 6 0 14 -8
17 -17z m-107 -8 c0 -9 -6 -12 -15 -9 -8 4 -15 10 -15 15 0 5 7 9 15 9 8 0 15
-7 15 -15z m670 -21 c0 -8 -4 -14 -10 -14 -5 0 -10 9 -10 21 0 11 5 17 10 14
6 -3 10 -13 10 -21z m-400 9 c-1 -14 -30 -47 -36 -41 -3 3 3 16 13 27 19 23
23 25 23 14z m564 -8 c3 -8 1 -15 -4 -15 -6 0 -10 7 -10 15 0 8 2 15 4 15 2 0
6 -7 10 -15z m124 -20 c1 -1 0 -10 -4 -19 -8 -22 -24 -20 -24 3 0 11 -6 22
-12 25 -7 3 -2 3 12 0 14 -4 26 -8 28 -9z m-628 -5 c0 -5 -4 -10 -10 -10 -5 0
-10 5 -10 10 0 6 5 10 10 10 6 0 10 -4 10 -10z m40 -40 c0 -5 -4 -10 -10 -10
-5 0 -10 5 -10 10 0 6 5 10 10 10 6 0 10 -4 10 -10z m-65 -30 c3 -5 1 -10 -4
-10 -6 0 -11 5 -11 10 0 6 2 10 4 10 3 0 8 -4 11 -10z m112 4 c-3 -3 -12 -4
-19 -1 -8 3 -5 6 6 6 11 1 17 -2 13 -5z m5678 -878 c18 -13 17 -16 -12 -77
-42 -87 -83 -134 -109 -125 -42 13 -59 110 -28 155 37 52 110 76 149 47z m787
-267 c-45 -29 -76 -92 -68 -138 4 -29 3 -32 -6 -17 -29 50 -1 136 53 163 40
21 56 14 21 -8z m-1561 -680 c55 -64 -23 -155 -106 -123 -24 10 -46 60 -39 89
3 14 18 35 33 46 32 26 84 20 112 -12z m5085 -1759 c-5 -36 -19 -60 -50 -89
-21 -20 -28 -22 -41 -11 -24 20 -19 83 8 107 45 41 90 37 83 -7z m2270 -779
c-15 -16 -27 -31 -26 -33 1 -1 -1 -10 -4 -18 -13 -40 -16 -42 -11 -5 3 27 13
48 30 63 37 32 44 27 11 -7z"/>
<path d="M4640 11156 c0 -10 9 -16 21 -16 24 0 21 23 -4 28 -10 2 -17 -3 -17
-12z"/>
<path d="M4732 11148 c6 -18 28 -21 28 -4 0 9 -7 16 -16 16 -9 0 -14 -5 -12
-12z"/>
<path d="M4812 11138 c-14 -14 -16 -58 -3 -58 8 0 25 60 18 66 -2 2 -9 -2 -15
-8z"/>
<path d="M4935 11114 c-21 -21 -2 -36 35 -27 38 9 48 23 16 23 -15 0 -25 4
-21 10 10 16 -12 11 -30 -6z"/>
<path d="M4666 11113 c-11 -11 -6 -23 9 -23 8 0 15 4 15 9 0 13 -16 22 -24 14z"/>
<path d="M4746 11105 c4 -8 10 -12 15 -9 14 8 10 24 -6 24 -9 0 -12 -6 -9 -15z"/>
<path d="M5128 11043 c7 -3 16 -2 19 1 4 3 -2 6 -13 5 -11 0 -14 -3 -6 -6z"/>
<path d="M4042 11023 c2 -10 11 -19 21 -21 23 -5 21 10 -4 26 -18 12 -20 11
-17 -5z"/>
<path d="M5305 11030 c3 -5 8 -10 11 -10 2 0 4 5 4 10 0 6 -5 10 -11 10 -5 0
-7 -4 -4 -10z"/>
<path d="M4270 11016 c0 -9 7 -16 16 -16 17 0 14 22 -4 28 -7 2 -12 -3 -12
-12z"/>
<path d="M5225 11010 c3 -5 8 -10 11 -10 2 0 4 5 4 10 0 6 -5 10 -11 10 -5 0
-7 -4 -4 -10z"/>
<path d="M5500 10940 c0 -5 5 -10 10 -10 6 0 10 5 10 10 0 6 -4 10 -10 10 -5
0 -10 -4 -10 -10z"/>
<path d="M3760 10869 c0 -5 5 -7 10 -4 6 3 10 8 10 11 0 2 -4 4 -10 4 -5 0
-10 -5 -10 -11z"/>
<path d="M3635 10790 c3 -5 10 -10 16 -10 5 0 9 5 9 10 0 6 -7 10 -16 10 -8 0
-12 -4 -9 -10z"/>
<path d="M3536 10783 c-11 -11 -6 -23 9 -23 8 0 15 4 15 9 0 13 -16 22 -24 14z"/>
<path d="M3416 10702 c-2 -4 4 -13 15 -20 21 -13 22 -12 13 12 -7 17 -20 21
-28 8z"/>
<path d="M5942 10688 c6 -18 28 -21 28 -4 0 9 -7 16 -16 16 -9 0 -14 -5 -12
-12z"/>
<path d="M3226 10621 c-20 -22 -14 -41 14 -41 24 0 33 15 25 40 -8 25 -17 25
-39 1z"/>
<path d="M3321 10624 c0 -11 3 -14 6 -6 3 7 2 16 -1 19 -3 4 -6 -2 -5 -13z"/>
<path d="M5996 10595 c4 -8 10 -12 15 -9 14 8 10 24 -6 24 -9 0 -12 -6 -9 -15z"/>
<path d="M3260 10570 c0 -5 5 -10 10 -10 6 0 10 5 10 10 0 6 -4 10 -10 10 -5
0 -10 -4 -10 -10z"/>
<path d="M3295 10550 c3 -5 8 -10 11 -10 2 0 4 5 4 10 0 6 -5 10 -11 10 -5 0
-7 -4 -4 -10z"/>
<path d="M3143 10504 c-3 -9 3 -24 15 -36 l20 -20 12 21 c9 17 9 26 -1 37 -15
19 -38 18 -46 -2z"/>
<path d="M3213 10491 c-8 -12 -9 -22 -3 -26 12 -8 51 17 47 30 -6 18 -32 16
-44 -4z"/>
<path d="M6195 10380 c-4 -6 3 -10 14 -10 25 0 27 6 6 13 -8 4 -17 2 -20 -3z"/>
<path d="M3072 10348 c-16 -16 -15 -28 3 -28 8 0 15 9 15 20 0 23 -2 24 -18 8z"/>
<path d="M3020 10290 c0 -5 5 -10 11 -10 5 0 7 5 4 10 -3 6 -8 10 -11 10 -2 0
-4 -4 -4 -10z"/>
<path d="M6336 10282 c-3 -6 -1 -14 5 -17 15 -10 25 3 12 16 -7 7 -13 7 -17 1z"/>
<path d="M2887 10018 c21 -24 43 -23 43 2 0 16 -6 20 -30 18 -27 -2 -28 -3
-13 -20z"/>
<path d="M4705 10011 c-17 -10 -39 -36 -49 -58 -49 -110 72 -216 182 -159 56
29 80 117 48 174 -32 58 -122 80 -181 43z"/>
<path d="M2890 9964 c0 -8 5 -12 10 -9 6 4 8 11 5 16 -9 14 -15 11 -15 -7z"/>
<path d="M6510 9930 c0 -5 7 -10 16 -10 8 0 12 5 9 10 -3 6 -10 10 -16 10 -5
0 -9 -4 -9 -10z"/>
<path d="M6613 9813 c-31 -6 -29 -23 2 -23 16 0 25 6 25 15 0 8 -1 14 -2 14
-2 -1 -13 -4 -25 -6z"/>
<path d="M5573 9711 c-49 -23 -73 -63 -73 -121 0 -146 197 -184 253 -49 16 38
17 51 8 87 -22 80 -110 119 -188 83z"/>
<path d="M6650 9585 c-10 -12 -9 -16 5 -21 17 -7 38 13 29 28 -8 12 -20 10
-34 -7z"/>
<path d="M2690 9493 c0 -22 2 -25 10 -13 13 20 13 40 0 40 -5 0 -10 -12 -10
-27z"/>
<path d="M6670 9470 c0 -5 9 -10 20 -10 22 0 26 -10 10 -26 -11 -11 -4 -44 9
-44 3 0 13 5 21 10 12 7 13 13 3 28 -8 13 -8 23 -1 30 6 6 6 12 -1 16 -6 4
-11 2 -11 -4 0 -7 -6 -8 -19 0 -25 13 -31 13 -31 0z"/>
<path d="M2720 9410 c0 -6 7 -10 15 -10 8 0 15 2 15 4 0 2 -7 6 -15 10 -8 3
-15 1 -15 -4z"/>
<path d="M6720 9354 c-18 -47 -12 -56 19 -28 17 14 27 32 24 40 -8 23 -33 16
-43 -12z"/>
<path d="M2750 9360 c0 -5 5 -10 10 -10 6 0 10 5 10 10 0 6 -4 10 -10 10 -5 0
-10 -4 -10 -10z"/>
<path d="M2712 9240 c0 -14 2 -19 5 -12 2 6 2 18 0 25 -3 6 -5 1 -5 -13z"/>
<path d="M6720 9205 c0 -8 9 -15 20 -15 11 0 20 2 20 5 0 2 -9 9 -20 15 -16 9
-20 8 -20 -5z"/>
<path d="M6720 9130 c0 -5 5 -10 11 -10 5 0 7 5 4 10 -3 6 -8 10 -11 10 -2 0
-4 -4 -4 -10z"/>
<path d="M6710 9075 c0 -5 5 -17 10 -25 5 -8 10 -10 10 -5 0 6 -5 17 -10 25
-5 8 -10 11 -10 5z"/>
<path d="M2617 9033 c-10 -10 -8 -33 3 -33 5 0 14 9 20 20 8 15 8 20 -3 20 -8
0 -17 -3 -20 -7z"/>
<path d="M2661 8988 c-7 -20 3 -39 13 -27 11 13 16 49 6 49 -6 0 -14 -10 -19
-22z"/>
<path d="M6765 8990 c-3 -5 3 -10 14 -10 12 0 21 5 21 10 0 6 -6 10 -14 10 -8
0 -18 -4 -21 -10z"/>
<path d="M6755 8940 c17 -19 45 -27 45 -14 0 11 -34 33 -49 34 -11 0 -10 -5 4
-20z"/>
<path d="M2641 8914 c0 -11 3 -14 6 -6 3 7 2 16 -1 19 -3 4 -6 -2 -5 -13z"/>
<path d="M6732 8850 c-13 -22 -16 -50 -4 -50 14 0 33 41 25 55 -7 12 -11 11
-21 -5z"/>
<path d="M2700 8839 c0 -7 -7 -17 -16 -24 -16 -11 -16 -12 0 -18 10 -4 16 -1
16 8 0 8 5 15 10 15 6 0 10 7 10 15 0 8 -4 15 -10 15 -5 0 -10 -5 -10 -11z"/>
<path d="M6740 8745 c0 -14 5 -25 10 -25 6 0 10 11 10 25 0 14 -4 25 -10 25
-5 0 -10 -11 -10 -25z"/>
<path d="M6685 8750 c3 -5 13 -10 21 -10 8 0 12 5 9 10 -3 6 -13 10 -21 10 -8
0 -12 -4 -9 -10z"/>
<path d="M2656 8664 c-3 -9 5 -26 20 -42 l26 -27 -6 34 c-3 18 -6 37 -6 42 0
15 -28 10 -34 -7z"/>
<path d="M6687 8659 c-3 -13 -1 -19 6 -16 15 5 22 37 9 37 -5 0 -12 -9 -15
-21z"/>
<path d="M2640 8550 c0 -5 6 -10 14 -10 8 0 18 5 21 10 3 6 -3 10 -14 10 -12
0 -21 -4 -21 -10z"/>
<path d="M6649 8534 c-10 -13 -10 -17 1 -24 17 -10 30 -4 30 15 0 22 -16 26
-31 9z"/>
<path d="M6600 8415 c0 -8 5 -15 10 -15 6 0 10 7 10 15 0 8 -4 15 -10 15 -5 0
-10 -7 -10 -15z"/>
<path d="M2788 8393 c6 -2 18 -2 25 0 6 3 1 5 -13 5 -14 0 -19 -2 -12 -5z"/>
<path d="M6566 8331 c-3 -5 1 -11 9 -15 15 -6 29 7 18 18 -9 9 -21 8 -27 -3z"/>
<path d="M2793 8322 c-8 -5 -7 -12 4 -27 15 -20 15 -20 10 2 -4 17 0 23 17 26
19 4 19 4 1 5 -11 1 -25 -2 -32 -6z"/>
<path d="M2818 8233 c-10 -3 -18 -9 -18 -14 0 -13 51 -10 78 5 23 12 23 13
-10 13 -18 0 -41 -2 -50 -4z"/>
<path d="M2770 8185 c0 -8 7 -15 15 -15 8 0 15 7 15 15 0 8 -7 15 -15 15 -8 0
-15 -7 -15 -15z"/>
<path d="M6400 7970 c0 -5 6 -10 14 -10 8 0 18 5 21 10 3 6 -3 10 -14 10 -12
0 -21 -4 -21 -10z"/>
<path d="M6345 7900 c4 -6 11 -8 16 -5 14 9 11 15 -7 15 -8 0 -12 -5 -9 -10z"/>
<path d="M6345 7860 c-3 -5 1 -10 10 -10 9 0 13 5 10 10 -3 6 -8 10 -10 10 -2
0 -7 -4 -10 -10z"/>
<path d="M6348 7833 c7 -3 16 -2 19 1 4 3 -2 6 -13 5 -11 0 -14 -3 -6 -6z"/>
<path d="M3103 7790 c-6 -15 -7 -26 -1 -29 15 -5 20 5 16 31 l-5 23 -10 -25z"/>
<path d="M6340 7775 c-7 -8 -8 -15 -2 -15 5 0 15 7 22 15 7 8 8 15 2 15 -5 0
-15 -7 -22 -15z"/>
<path d="M3200 7681 c0 -14 18 -23 31 -15 8 4 7 9 -2 15 -18 11 -29 11 -29 0z"/>
<path d="M6220 7650 c-9 -16 -8 -20 5 -20 8 0 15 9 15 20 0 11 -2 20 -5 20 -2
0 -9 -9 -15 -20z"/>
<path d="M6089 7548 c-10 -18 -9 -20 6 -15 9 4 19 7 21 7 2 0 4 7 4 15 0 22
-18 18 -31 -7z"/>
<path d="M3481 7506 c-6 -14 -15 -26 -21 -26 -5 0 -10 -9 -10 -20 0 -35 25
-21 38 21 14 46 8 67 -7 25z"/>
<path d="M6034 7505 c21 -16 32 -13 21 4 -3 6 -14 11 -23 11 -15 -1 -15 -2 2
-15z"/>
<path d="M3490 7430 c0 -5 7 -10 15 -10 8 0 15 5 15 10 0 6 -7 10 -15 10 -8 0
-15 -4 -15 -10z"/>
<path d="M5860 7429 c0 -5 5 -7 10 -4 6 3 10 8 10 11 0 2 -4 4 -10 4 -5 0 -10
-5 -10 -11z"/>
<path d="M3592 7413 c-4 -10 -6 -34 -2 -53 4 -26 7 -31 12 -17 4 9 5 24 2 32
-4 8 -1 15 5 15 13 0 15 27 2 35 -6 3 -14 -2 -19 -12z"/>
<path d="M5645 7350 c3 -5 8 -10 11 -10 2 0 4 5 4 10 0 6 -5 10 -11 10 -5 0
-7 -4 -4 -10z"/>
<path d="M5837 7345 c-4 -8 -2 -17 3 -20 6 -4 10 3 10 14 0 25 -6 27 -13 6z"/>
<path d="M3630 7330 c0 -5 5 -10 10 -10 6 0 10 5 10 10 0 6 -4 10 -10 10 -5 0
-10 -4 -10 -10z"/>
<path d="M3860 7230 c0 -5 9 -10 20 -10 11 0 20 5 20 10 0 6 -9 10 -20 10 -11
0 -20 -4 -20 -10z"/>
<path d="M3960 7220 c0 -5 5 -10 11 -10 5 0 7 5 4 10 -3 6 -8 10 -11 10 -2 0
-4 -4 -4 -10z"/>
<path d="M5607 7215 c-5 -10 0 -15 14 -15 12 0 19 5 17 12 -6 18 -25 20 -31 3z"/>
<path d="M4123 7203 c9 -2 23 -2 30 0 6 3 -1 5 -18 5 -16 0 -22 -2 -12 -5z"/>
<path d="M3905 7190 c3 -5 8 -10 11 -10 2 0 4 5 4 10 0 6 -5 10 -11 10 -5 0
-7 -4 -4 -10z"/>
<path d="M5560 7179 c0 -11 5 -17 10 -14 6 3 10 13 10 21 0 8 -4 14 -10 14 -5
0 -10 -9 -10 -21z"/>
<path d="M5457 7176 c-6 -16 2 -28 14 -20 12 7 11 34 0 34 -5 0 -11 -6 -14
-14z"/>
<path d="M4001 7148 c-1 -16 4 -28 9 -28 12 0 12 8 0 35 -8 18 -9 17 -9 -7z"/>
<path d="M4124 7106 c-8 -22 3 -33 18 -18 9 9 9 15 0 24 -9 9 -13 7 -18 -6z"/>
<path d="M4560 7093 c0 -15 -9 -37 -21 -49 -12 -12 -18 -27 -14 -33 9 -16 28
-2 21 15 -3 8 -2 14 3 14 5 0 11 -9 14 -20 3 -14 14 -20 31 -20 34 0 33 15 -3
31 -26 12 -28 16 -23 51 2 21 2 38 -2 38 -3 0 -6 -12 -6 -27z"/>
<path d="M4634 7074 c-6 -19 -8 -34 -3 -34 8 0 24 59 17 65 -2 2 -8 -12 -14
-31z"/>
<path d="M4260 7070 c0 -5 9 -10 20 -10 11 0 20 5 20 10 0 6 -9 10 -20 10 -11
0 -20 -4 -20 -10z"/>
<path d="M4952 7060 c0 -14 2 -19 5 -12 2 6 2 18 0 25 -3 6 -5 1 -5 -13z"/>
</g>
</svg>
