<?xml version="1.0" standalone="no"?>
<!DOCTYPE svg PUBLIC "-//W3C//DTD SVG 20010904//EN"
 "http://www.w3.org/TR/2001/REC-SVG-20010904/DTD/svg10.dtd">
<svg version="1.0" xmlns="http://www.w3.org/2000/svg"
 width="1088.000000pt" height="612.000000pt" viewBox="0 0 1088.000000 612.000000"
 preserveAspectRatio="xMidYMid meet">
<metadata>
Created by potrace 1.14, written by Peter Selinger 2001-2017
</metadata>
<g transform="translate(0.000000,612.000000) scale(0.100000,-0.100000)"
fill="#000000" stroke="none">
<path d="M0 4946 c0 -646 3 -1181 6 -1190 5 -13 9 -12 25 7 15 18 14 11 -6
-33 l-25 -55 0 -1838 0 -1837 3777 2 c3646 3 3778 4 3776 21 0 12 4 16 13 13
11 -4 12 -2 1 14 -6 11 -15 20 -19 20 -3 0 -1 13 5 29 6 17 14 28 19 25 4 -3
5 3 1 12 -6 16 -7 15 -20 -2 -7 -10 -13 -14 -13 -8 0 5 14 22 30 37 17 16 30
34 30 40 0 8 -3 8 -8 -1 -5 -7 -17 -10 -28 -6 -16 5 -16 4 -4 -5 12 -9 10 -11
-11 -11 -37 0 -139 22 -139 30 0 15 13 18 35 10 13 -5 25 -5 27 0 2 4 47 11
101 15 75 5 102 3 114 -7 9 -7 19 -12 22 -10 3 2 7 -2 9 -10 2 -9 0 -8 -7 2
-9 13 -11 13 -11 1 0 -11 -4 -9 -14 5 -16 22 -30 15 -20 -10 4 -9 17 -16 34
-16 23 0 33 9 54 45 36 61 43 57 8 -5 l-27 -50 -55 1 c-30 1 -47 3 -38 6 19 5
13 33 -7 33 -25 0 -11 -42 27 -81 38 -39 51 -73 24 -63 -12 5 -36 -40 -36 -67
0 -5 727 -9 1615 -9 l1615 0 0 775 c0 718 -1 778 -17 803 -10 15 -22 31 -28
35 -5 5 2 6 18 3 l27 -6 0 2255 0 2255 -5440 0 -5440 0 0 -1174z m7774 1058
c-5 -29 10 -31 29 -4 12 17 16 18 40 5 44 -23 57 -41 57 -82 0 -49 -17 -70
-37 -45 -13 15 -13 15 -3 -5 6 -13 7 -23 3 -23 -4 0 -1 -4 7 -10 8 -5 12 -11
9 -14 -3 -3 -22 8 -42 25 -21 17 -42 27 -48 23 -8 -4 -9 -3 -5 4 4 7 -10 28
-33 50 -23 22 -41 37 -41 34 0 -3 -3 -3 -6 0 -6 7 11 44 30 63 18 20 45 6 40
-21z m187 -171 c8 -23 39 -32 39 -13 0 6 15 4 36 -5 l35 -14 14 33 c8 18 21
38 29 45 13 11 17 10 22 -4 7 -16 8 -16 17 1 10 17 11 16 18 -9 8 -30 1 -67
-12 -67 -5 0 -9 8 -9 17 0 10 -3 13 -8 8 -16 -18 -33 -90 -35 -141 -1 -36 -6
-50 -14 -47 -9 3 -13 -4 -13 -21 l0 -26 -48 30 c-34 21 -55 42 -68 72 -10 23
-33 58 -49 78 -35 42 -37 71 -9 118 l19 32 14 -32 c7 -18 17 -43 22 -55z
m1442 -680 c30 -32 52 -39 27 -8 -17 21 11 31 53 19 28 -8 31 -14 32 -47 1
-21 7 -43 14 -50 10 -9 11 -8 5 8 -5 16 -3 15 12 -4 10 -14 26 -33 37 -44 11
-11 17 -27 14 -38 -3 -11 -1 -16 5 -13 5 3 8 -1 6 -9 -2 -8 13 -32 32 -53 21
-24 36 -51 37 -69 2 -27 1 -28 -9 -10 -6 11 -17 24 -25 28 -9 5 -11 16 -7 29
5 15 3 19 -7 13 -8 -5 -11 -5 -7 0 4 4 -7 25 -25 46 -18 21 -49 65 -67 97 -30
51 -38 58 -54 50 -14 -8 -25 -3 -50 21 -31 30 -35 31 -77 22 -24 -5 -46 -8
-48 -5 -3 2 -7 31 -9 63 -4 52 -2 60 14 63 14 3 26 -8 43 -37 13 -22 37 -55
54 -72z m-6168 -245 c10 -88 16 -108 30 -108 16 0 28 -56 15 -80 -10 -18 -1
-63 19 -97 9 -16 10 -16 11 7 l1 25 11 -23 c7 -14 17 -20 28 -17 12 4 21 -5
32 -33 l15 -38 -26 1 c-15 0 -31 8 -37 19 -8 14 -13 15 -19 6 -4 -6 -2 -17 4
-23 6 -6 11 -22 10 -36 -1 -19 -6 -11 -18 26 -9 29 -21 56 -25 60 -5 4 -6 1
-2 -7 4 -8 -4 -1 -18 15 -14 17 -26 35 -26 41 0 6 -10 24 -22 39 -21 27 -21
28 -3 41 18 14 18 14 -1 29 -10 8 -24 15 -31 15 -7 0 -10 7 -6 17 4 11 3 14
-6 9 -11 -7 -12 13 -1 24 8 8 40 106 40 124 0 9 4 16 9 16 5 0 12 -24 16 -52z
m3877 -18 c-4 -30 -4 -30 42 -30 25 0 46 -4 46 -8 0 -5 15 -9 33 -9 29 0 125
-15 185 -28 12 -3 22 -9 22 -14 0 -17 -31 -20 -70 -7 -44 15 -67 2 -25 -14 14
-5 29 -9 33 -9 19 3 33 -2 27 -10 -3 -5 4 -12 15 -16 11 -3 20 -12 20 -19 0
-9 9 -12 25 -8 14 2 22 8 19 13 -2 5 5 11 18 13 103 21 132 22 279 7 65 -6 94
-14 117 -31 26 -19 29 -26 20 -38 -10 -12 -4 -13 41 -9 65 6 114 -7 158 -41
18 -15 38 -27 45 -28 42 -3 42 -4 24 -17 -16 -12 -16 -14 -2 -26 9 -7 13 -17
11 -21 -9 -14 44 -60 68 -60 24 0 79 -32 78 -46 0 -5 14 -17 32 -26 31 -17 31
-17 7 -18 -24 -1 -24 -1 -5 -16 11 -8 25 -12 31 -10 7 3 15 -6 18 -20 4 -15
20 -31 41 -41 19 -9 32 -19 30 -23 -2 -4 19 -19 48 -34 29 -15 41 -25 27 -22
-14 3 -38 -1 -54 -9 -16 -8 -41 -15 -57 -15 -37 0 -37 -15 -1 -28 23 -8 31 -6
41 7 8 12 13 13 17 4 3 -7 12 -13 20 -13 8 0 17 -7 20 -15 4 -8 17 -15 30 -15
21 0 23 -3 14 -26 -6 -14 -7 -37 -4 -51 5 -19 2 -30 -10 -38 -12 -9 -15 -20
-10 -39 3 -14 10 -26 14 -26 10 0 -11 -93 -23 -101 -5 -4 -7 -17 -6 -30 2 -13
0 -29 -4 -35 -4 -7 3 -10 21 -7 22 3 23 2 8 -5 -27 -12 -7 -22 38 -20 20 1 44
-6 53 -14 10 -9 27 -14 38 -12 39 7 245 -67 245 -89 0 -5 -6 -4 -14 2 -9 8
-16 8 -20 2 -8 -12 -108 -3 -117 10 -3 5 -62 10 -132 11 -70 1 -127 6 -127 10
0 4 -12 7 -27 7 -19 -1 -22 -3 -10 -6 32 -8 88 -51 75 -56 -14 -6 24 -11 55
-8 9 1 17 -4 17 -13 0 -13 18 -15 112 -13 99 2 111 4 114 20 1 11 6 22 9 25 4
4 4 -27 0 -70 -9 -95 2 -193 23 -215 30 -29 44 -58 60 -118 5 -22 19 -65 31
-95 32 -84 31 -88 -36 -85 -36 2 -61 -2 -65 -9 -5 -6 -8 -2 -8 11 0 12 -5 25
-12 29 -8 5 -9 2 -4 -11 5 -15 4 -16 -8 -6 -8 7 -20 10 -26 6 -5 -3 -10 1 -10
9 0 22 -15 20 -31 -4 -12 -16 -27 -20 -88 -21 l-74 -2 -29 49 c-29 51 -36 111
-19 157 11 28 -5 115 -25 138 -8 8 -14 26 -15 40 0 22 -1 22 -8 4 -7 -16 -10
-12 -15 23 -9 50 -23 55 -28 10 -2 -21 -8 -32 -16 -30 -7 1 -25 -12 -39 -29
l-27 -31 -18 22 c-10 13 -20 21 -21 19 -2 -2 -17 -40 -35 -84 -17 -44 -31 -76
-32 -71 0 5 -6 3 -14 -3 -19 -16 -62 39 -70 90 -7 44 -84 168 -103 169 -7 0
-13 7 -13 15 0 21 -18 19 -32 -5 -7 -11 -18 -20 -25 -20 -7 0 -24 -20 -39 -45
-14 -25 -29 -45 -34 -45 -4 0 -19 9 -34 21 -18 14 -34 19 -51 15 -16 -4 -25
-2 -25 5 0 7 -16 -5 -35 -25 -19 -21 -35 -32 -35 -26 0 20 -67 -59 -124 -145
-36 -55 -59 -81 -75 -83 -14 -2 -26 -14 -33 -32 -5 -16 -18 -32 -29 -35 -10
-4 -19 -11 -19 -16 0 -5 -19 -28 -43 -52 -49 -49 -111 -125 -119 -148 -4 -11
-21 -16 -54 -17 -26 -1 -50 -5 -53 -8 -3 -3 12 -4 34 -2 41 3 75 -15 75 -39 0
-7 10 -13 23 -13 44 0 51 -17 11 -25 -38 -7 -38 -7 -15 -20 23 -12 23 -13 5
-23 -18 -11 -18 -11 1 -12 11 0 27 -5 35 -11 13 -9 13 -10 -2 -6 -9 3 -22 -1
-28 -9 -10 -11 -10 -14 -1 -14 7 0 20 -8 29 -17 16 -15 15 -16 -11 -9 -15 3
-33 4 -38 0 -11 -7 34 -34 57 -34 8 0 14 -4 14 -10 0 -5 -11 -10 -24 -10 -29
0 -44 -18 -22 -26 8 -3 12 -12 10 -19 -4 -9 8 -15 35 -20 23 -4 43 -11 47 -16
7 -12 -32 -15 -166 -9 -41 1 -135 0 -208 -4 -98 -5 -132 -3 -126 5 5 8 -7 9
-42 4 -27 -4 -128 -8 -224 -9 -159 -3 -164 -2 -55 4 153 9 149 9 142 16 -3 4
-55 6 -114 6 -63 0 -95 3 -78 7 l30 7 -28 7 c-16 4 -34 4 -40 -1 -7 -5 -28 -9
-47 -11 -33 -1 -34 -1 -14 13 11 8 54 19 95 24 l74 9 -83 2 c-56 1 -81 4 -77
12 4 6 13 8 21 5 7 -3 16 -1 19 4 4 6 -9 10 -27 11 -18 1 -44 5 -58 9 -20 6
-14 9 30 11 45 2 48 3 18 6 -65 7 -42 20 30 17 66 -3 66 -3 32 11 -19 7 -46
14 -60 14 -21 1 -22 3 -10 16 8 8 32 15 53 17 62 4 52 14 -31 30 l-77 16 85 3
c74 2 79 3 40 9 -44 7 -44 7 -9 8 20 1 51 5 70 9 28 5 30 7 14 14 -11 4 -36 8
-55 8 -19 1 -42 6 -50 12 -12 8 -8 9 15 8 17 -1 43 2 58 6 16 4 155 11 310 15
l282 7 -300 2 c-172 1 -294 5 -286 10 11 7 11 10 0 17 -7 4 -14 3 -17 -4 -2
-7 -10 -12 -18 -12 -9 0 -13 4 -9 9 3 6 -14 12 -37 14 -24 2 20 5 97 6 77 1
158 5 180 10 36 6 31 8 -45 14 -47 4 -139 8 -205 9 -66 1 -102 3 -80 5 74 8
60 22 -16 17 -68 -5 -72 -4 -50 9 l25 15 -30 6 c-16 3 -55 7 -86 7 -38 2 -58
6 -58 14 0 11 -188 24 -427 30 -61 1 -75 5 -97 26 -14 13 -26 30 -26 37 0 7
-4 11 -10 7 -14 -9 -61 6 -53 18 4 6 -3 8 -21 3 -19 -5 -35 -1 -55 13 -16 11
-31 18 -35 14 -3 -3 -6 -2 -6 4 0 6 -22 10 -55 8 -35 -1 -55 2 -55 9 -1 6 -10
22 -20 35 -15 18 -23 21 -33 12 -11 -9 -18 5 -36 72 -12 45 -25 103 -28 130
-4 30 -11 47 -19 47 -8 0 -14 5 -14 10 0 6 5 10 10 10 6 0 10 5 10 11 0 6 -7
8 -15 5 -18 -6 -95 38 -95 55 0 6 12 1 26 -10 27 -21 70 -29 59 -12 -3 5 0 13
6 16 5 4 8 13 5 21 -6 17 19 44 42 44 15 1 15 2 -2 11 -14 9 -21 8 -28 -2 -6
-10 -7 -6 -2 11 9 36 12 37 45 18 33 -20 38 -13 9 12 -19 17 -19 17 6 29 24
11 26 15 20 54 -4 23 -15 56 -26 74 -17 29 -17 32 -2 38 16 6 16 7 0 16 -12 6
-18 22 -18 44 0 18 -5 35 -10 37 -7 2 -5 15 5 36 14 27 22 32 51 32 30 0 34 3
34 25 0 15 6 25 15 25 8 0 19 9 25 21 7 11 18 18 25 15 8 -3 16 5 19 20 4 13
13 24 21 24 8 0 15 6 15 13 0 7 6 21 13 31 11 16 29 19 99 20 75 1 89 4 126
29 66 43 97 98 99 175 1 35 5 67 9 70 4 4 4 2 0 -5 -3 -6 -2 -14 4 -18 5 -3
10 1 10 9 0 9 8 16 19 16 10 0 26 11 35 25 9 14 21 23 26 20 6 -4 10 -2 10 4
0 6 11 13 25 17 14 3 22 10 19 15 -3 5 8 9 24 9 17 0 32 6 36 15 3 8 17 15 31
15 14 0 28 7 31 15 4 8 12 15 19 15 7 0 18 7 25 15 8 9 21 13 36 9 19 -5 23
-3 18 10 -5 12 0 16 24 16 47 0 95 12 81 20 -7 5 0 10 20 15 17 3 31 13 31 21
0 16 37 19 42 3 2 -7 17 -7 46 -1 27 6 44 6 48 0 3 -5 19 -6 35 -3 16 4 34 3
41 -2 18 -11 182 -10 190 2 4 5 39 10 79 10 49 0 74 4 77 13 2 6 8 10 13 6 5
-3 9 12 10 33 1 21 7 -3 13 -53 14 -99 22 -122 39 -105 12 12 36 139 36 194 1
21 5 36 9 33 5 -3 7 -19 4 -36z m-1258 -315 c25 -25 39 -88 32 -138 -14 -93
-102 -167 -198 -167 -37 0 -55 7 -89 33 -37 28 -51 48 -34 47 8 -1 28 21 48
52 9 15 30 31 45 34 26 6 102 77 102 95 0 5 7 9 16 9 9 0 14 6 11 13 -2 6 5
17 17 24 28 16 32 16 50 -2z m-944 -640 c11 -10 20 -24 20 -31 0 -7 4 -16 10
-19 6 -3 7 1 4 9 -5 12 0 16 19 16 24 0 87 -53 87 -74 0 -6 -5 -5 -12 2 -8 8
-17 8 -32 0 -12 -6 -18 -7 -14 -3 16 17 -27 43 -70 40 -30 -2 -45 2 -49 12 -4
11 -9 11 -23 -4 -10 -10 -16 -20 -15 -23 4 -7 -73 -6 -80 2 -8 8 38 57 73 78
33 20 55 19 82 -5z m-4350 -186 c-8 -14 -5 -15 18 -11 15 3 110 5 212 6 102 1
191 5 198 9 6 5 12 4 12 -1 0 -5 -11 -17 -25 -26 -14 -9 -25 -24 -25 -34 0
-21 -58 -74 -72 -66 -5 3 -23 -7 -39 -22 -36 -34 -48 -29 -97 42 -19 27 -41
52 -51 55 -9 4 -23 14 -30 23 -21 25 -37 19 -77 -28 -27 -33 -41 -42 -57 -38
-20 5 -20 5 1 13 12 5 22 13 22 19 0 17 -39 11 -59 -9 -18 -18 -19 -17 -40 26
-25 53 -25 52 -3 47 9 -3 28 -1 42 5 14 5 37 9 52 8 21 -1 25 -4 18 -18z
m3360 -310 c0 -3 20 -6 45 -6 39 0 45 3 45 21 1 14 6 7 16 -19 23 -60 32 -109
40 -228 l7 -108 -44 3 -44 3 -2 45 c-5 85 -26 191 -37 187 -11 -4 -66 96 -66
120 0 11 4 11 20 1 11 -7 20 -15 20 -19z m6493 -213 c6 -14 -15 -178 -33 -253
-10 -47 -13 -51 -36 -47 -22 4 -24 2 -18 -21 4 -16 2 -25 -6 -25 -7 0 -10 6
-7 14 3 8 1 16 -5 18 -7 3 -4 27 10 73 11 39 23 90 27 115 11 81 35 149 50
144 7 -3 16 -11 18 -18z m-308 -263 c11 -80 30 -138 44 -138 9 0 15 -11 15
-28 2 -27 -13 -49 -30 -46 -5 1 -17 1 -28 0 -15 -1 -16 -4 -6 -16 7 -9 21 -13
31 -10 10 3 32 -1 50 -10 32 -17 32 -17 26 6 l-6 22 21 -20 c20 -21 21 -21 50
-3 16 10 37 28 45 40 16 23 16 23 30 -24 12 -39 12 -53 1 -77 -7 -16 -16 -29
-20 -29 -19 0 -5 -20 27 -39 19 -11 40 -32 45 -47 9 -22 6 -33 -19 -71 -17
-25 -35 -62 -42 -82 -6 -20 -16 -40 -22 -46 -7 -7 -8 -5 -4 7 9 27 -15 50 -45
43 -34 -9 -26 -44 12 -58 l28 -11 -24 -65 c-13 -36 -24 -67 -24 -69 0 -2 -4
-1 -9 3 -13 7 -82 -68 -98 -107 l-13 -31 -20 26 c-11 14 -29 29 -40 32 -17 5
-20 15 -20 62 0 43 3 54 14 50 8 -3 17 1 20 9 3 8 1 12 -4 9 -5 -3 -19 -1 -30
5 -18 10 -19 14 -8 28 11 13 11 15 -5 9 -14 -5 -21 2 -33 33 -9 22 -20 40 -26
40 -5 0 -19 -21 -31 -47 -20 -44 -24 -47 -45 -38 -12 5 -25 18 -28 28 -4 12
-12 16 -21 12 -13 -4 -14 -3 -3 10 12 14 7 20 -14 16 -5 -1 -5 6 -2 15 4 10
11 38 17 63 5 25 15 51 21 58 5 7 8 19 4 28 -3 8 -2 14 2 14 19 -3 32 2 32 12
0 6 -7 8 -16 5 -13 -5 -15 -1 -12 21 3 16 11 65 19 111 8 51 18 82 26 82 18 0
30 27 43 100 21 119 20 117 31 97 16 -28 35 -20 52 23 8 22 20 40 26 40 5 0
13 -21 16 -47z m-7515 -218 c7 -9 15 -13 18 -10 17 16 82 -92 82 -136 0 -31
32 -143 46 -159 7 -8 15 -32 19 -53 4 -20 15 -47 25 -60 9 -12 20 -32 24 -44
4 -12 15 -25 25 -28 10 -3 21 -19 25 -35 3 -17 17 -54 30 -83 34 -72 48 -134
31 -141 -19 -7 -8 -40 23 -73 15 -15 25 -32 24 -37 -5 -15 9 -44 23 -50 9 -3
12 0 8 10 -3 7 -9 14 -14 14 -5 0 -9 7 -9 16 0 8 5 12 10 9 16 -10 12 12 -5
29 -8 8 -15 20 -15 27 0 7 9 3 20 -9 28 -30 50 -28 50 3 0 14 -5 25 -11 25 -5
0 -7 5 -4 10 10 16 23 2 30 -33 4 -17 11 -36 15 -42 11 -14 90 -336 90 -368 0
-14 5 -29 10 -32 6 -4 8 -10 6 -13 -2 -4 4 -50 15 -102 11 -52 23 -111 26
-130 3 -19 12 -44 19 -55 8 -11 14 -33 13 -50 l-1 -30 -11 35 c-6 19 -17 41
-24 48 -11 11 -13 7 -14 -25 l-1 -38 -9 35 c-5 19 -11 52 -14 73 -2 20 -8 45
-13 55 -14 27 -21 101 -10 108 11 7 1 83 -13 100 -5 6 -6 14 -2 17 3 4 1 7 -5
7 -6 0 -16 -8 -21 -17 -6 -10 -11 -13 -11 -6 0 6 5 15 12 19 7 5 5 11 -7 21
-11 7 -17 13 -14 14 2 0 12 2 21 4 11 2 15 -2 11 -11 -3 -8 -1 -14 4 -14 12 0
14 38 2 45 -5 4 -9 0 -9 -7 0 -10 -2 -10 -8 0 -6 9 -15 6 -32 -13 -18 -19 -20
-24 -7 -19 12 4 17 1 17 -10 0 -14 -4 -15 -20 -6 -11 6 -21 16 -21 23 -1 7 -2
17 -3 24 0 6 -13 21 -29 33 -27 21 -67 91 -67 117 0 8 -7 16 -15 19 -8 4 -15
12 -15 19 0 8 -9 29 -20 47 -27 47 -51 118 -39 118 5 0 12 -8 15 -17 15 -47
26 -70 45 -93 l20 -25 -20 40 c-30 63 -35 86 -17 79 24 -9 19 19 -5 35 -17 10
-23 10 -29 1 -11 -18 -27 -4 -40 35 -6 19 -16 35 -21 35 -5 0 -8 3 -7 8 4 9
-47 144 -75 200 -12 23 -26 41 -32 38 -6 -2 -19 14 -29 35 -12 23 -22 35 -26
28 -9 -14 -21 28 -13 48 4 9 14 13 29 10 19 -3 24 0 24 16 0 16 -3 17 -15 7
-12 -10 -16 -9 -21 5 -5 12 -14 15 -30 11 -25 -7 -24 -7 -29 56 0 9 -4 20 -8
24 -4 4 -7 15 -7 24 0 23 -35 131 -54 168 -17 33 -13 42 20 42 13 0 26 5 29
10 9 14 21 12 35 -5z m4555 -246 c3 -4 -29 -7 -71 -8 -43 -1 -80 -4 -83 -7 -3
-3 35 -3 84 0 165 12 440 15 454 7 20 -13 4 -31 -27 -31 -20 0 -23 -3 -13 -9
11 -7 10 -10 -5 -14 -10 -2 1 -5 25 -6 92 -2 29 -9 -184 -21 -284 -15 -335
-26 -145 -30 80 -2 174 -3 208 -4 55 0 61 -2 46 -13 -12 -8 -50 -13 -110 -13
-51 0 -96 -4 -99 -10 -7 -11 -2 -12 174 -12 72 0 117 -4 110 -9 -10 -6 -8 -9
9 -9 12 0 22 -4 22 -10 0 -5 -13 -10 -30 -10 -20 0 -30 -5 -30 -15 0 -8 5 -15
11 -15 5 0 7 -4 4 -10 -4 -6 9 -10 32 -11 21 -1 49 -5 63 -9 l25 -8 -26 -1
c-14 -1 -30 -6 -37 -13 -8 -8 -15 -8 -29 3 -16 13 -17 12 -5 -2 10 -14 10 -18
-5 -24 -57 -23 -780 -22 -845 1 -22 8 -66 15 -97 15 -56 1 -56 1 -16 10 22 4
69 8 105 7 54 -1 59 -2 30 -8 -35 -7 -35 -7 -5 -9 17 -1 55 -3 85 -6 l55 -4
-50 13 -50 14 80 2 c44 0 199 2 345 3 213 1 245 3 165 9 -55 4 -269 7 -475 7
-393 0 -430 1 -430 14 0 9 69 12 210 9 137 -2 92 14 -64 24 -61 4 -118 10
-126 15 -12 7 -10 8 7 9 12 0 26 7 31 16 7 13 19 16 53 11 41 -5 42 -5 19 8
-20 11 -22 15 -9 20 9 3 20 5 25 4 34 -6 204 3 204 11 0 6 -70 9 -195 8 -107
-1 -198 2 -202 6 -4 4 31 6 80 4 48 -2 87 0 87 5 0 4 28 8 63 8 89 2 27 16
-77 18 -106 1 -93 10 19 12 101 3 130 11 70 20 l-40 6 43 2 c60 2 52 17 -10
20 -94 4 -64 11 43 9 80 -1 94 -3 59 -8 -37 -6 -30 -7 40 -7 62 -1 76 1 52 7
-18 4 -35 9 -37 11 -2 2 84 4 190 4 106 0 196 -3 200 -6z m2315 -467 c-5 -13
-14 -21 -19 -18 -4 3 -9 -7 -9 -22 -3 -60 -14 -132 -20 -128 -4 2 -7 -10 -8
-27 -1 -38 -21 -130 -23 -105 -1 11 -8 15 -23 11 -21 -4 -21 -3 -5 7 20 13 14
32 -8 23 -8 -3 -15 0 -15 6 0 6 6 11 13 11 8 0 8 3 -2 9 -11 7 -13 25 -8 84 5
55 3 77 -6 80 -7 3 -6 6 5 6 12 1 15 7 11 24 -5 22 -5 22 11 2 17 -20 17 -19
6 3 -7 13 -14 21 -17 18 -4 -3 -13 0 -21 7 -12 9 -16 9 -19 0 -3 -9 -10 -9
-27 2 -12 8 -27 12 -32 8 -5 -5 0 2 10 15 17 20 21 21 36 7 15 -14 19 -14 31
2 9 11 10 14 2 9 -18 -10 -16 -2 8 47 37 71 70 116 83 111 7 -3 19 3 27 12 12
15 15 5 22 -82 5 -64 4 -107 -3 -122z m-2588 74 c7 -10 239 -18 618 -20 246
-1 241 -8 -20 -25 l-135 -10 145 3 c109 2 134 0 100 -6 -66 -14 -96 -30 -42
-23 23 3 42 1 42 -4 0 -5 30 -7 68 -5 l67 3 -55 -10 c-62 -10 -133 -14 -200
-9 -42 2 -43 3 -15 10 29 7 29 8 -5 5 -19 -1 -105 1 -190 5 -85 5 -207 4 -270
-1 -76 -6 -116 -6 -118 1 -4 12 -122 13 -172 1 -20 -4 -44 -4 -55 0 -14 5 -15
8 -5 9 8 0 2 7 -15 14 -27 11 -23 12 45 9 41 -2 122 0 180 4 88 6 98 8 65 14
-55 11 -215 10 -297 0 -66 -9 -363 -3 -353 7 2 3 37 5 77 4 54 -1 68 1 53 9
-14 6 27 8 130 6 83 -2 135 -2 117 0 -18 3 -30 7 -28 11 6 11 260 8 268 -2z
m-52 -97 c36 -5 155 -10 265 -11 200 -1 200 -1 77 -9 -68 -4 -155 -13 -193
-19 -52 -8 -94 -7 -157 1 -81 11 -183 8 -242 -7 -18 -4 -21 -3 -11 4 9 7 -38
12 -145 16 -259 11 -227 25 49 21 143 -2 247 1 247 6 0 12 29 11 110 -2z
m3284 -25 c9 -3 13 -11 9 -17 -3 -5 -2 -7 3 -4 6 3 16 2 23 -2 18 -12 -36
-202 -69 -242 -26 -30 -61 -43 -92 -33 -15 4 -16 9 -7 27 10 21 9 21 -5 3 -9
-10 -14 -22 -12 -25 2 -3 -2 -12 -10 -19 -8 -7 -14 -10 -14 -6 0 3 -16 -3 -36
-15 l-35 -21 15 22 c9 12 16 29 16 38 0 8 5 22 10 30 8 13 11 13 19 1 11 -17
27 -7 53 33 17 27 19 28 13 6 -6 -23 -5 -23 13 5 11 17 17 34 14 39 -2 4 -8 2
-13 -5 -7 -11 -9 -11 -9 -1 0 7 7 15 15 18 9 4 15 11 14 18 -4 29 2 47 13 40
8 -5 9 0 6 14 -4 14 -2 20 4 16 7 -5 9 3 4 22 -4 19 -3 24 2 15 6 -8 12 -9 16
-3 3 6 2 13 -4 17 -5 3 -10 12 -10 18 0 8 3 8 8 2 12 -16 32 -16 26 0 -7 17
-3 18 20 9z m-2604 -26 c0 -3 -5 -8 -11 -10 -6 -2 59 -4 146 -3 86 0 162 -3
167 -6 9 -6 -288 -16 -564 -20 -32 0 -58 -5 -58 -10 0 -6 -60 -7 -155 -3 -91
4 -155 3 -155 -2 0 -5 80 -10 178 -11 97 -1 204 -5 237 -8 33 -3 151 -7 262
-8 194 -2 277 -10 151 -14 -34 -1 -66 -7 -72 -14 -8 -9 -2 -10 29 -5 24 3 32
2 20 -3 -19 -8 -19 -8 0 -19 17 -10 15 -11 -20 -12 -22 0 -56 4 -75 10 -22 6
-38 6 -44 0 -7 -7 -5 -11 5 -12 7 -1 -11 -4 -41 -7 -30 -3 -70 -4 -89 -2 -31
3 -33 5 -17 16 12 9 28 10 58 3 47 -10 86 -6 53 6 -11 4 -27 11 -35 15 -8 4
-26 7 -40 5 -14 -1 -61 4 -105 13 -65 13 -153 16 -470 15 -231 -1 -396 3 -405
8 -11 7 -1 10 33 10 28 0 47 5 47 11 0 8 -20 9 -62 5 -64 -6 -191 -9 -218 -5
-24 3 80 17 145 19 38 1 52 4 37 8 -25 8 155 7 313 -1 l100 -5 -90 8 c-142 12
-166 31 -30 24 61 -3 138 -9 173 -13 58 -7 85 1 45 13 -10 3 59 4 154 2 94 -1
170 1 168 4 -2 3 50 6 116 6 65 -1 119 -4 119 -8z m-255 -127 l90 -7 -50 -17
-50 -17 50 6 c28 4 55 7 60 8 6 0 9 -6 9 -15 -1 -13 14 -18 80 -24 44 -5 106
-8 136 -8 30 0 46 -2 36 -5 -11 -2 -25 -10 -32 -17 -9 -9 -27 -10 -65 -4 -29
5 -56 6 -60 3 -4 -2 -10 0 -14 6 -3 5 -21 10 -39 10 -17 0 -36 4 -42 9 -5 5
-79 12 -164 14 -164 5 -348 28 -415 52 -22 7 -49 16 -60 19 -25 7 408 -4 530
-13z m-620 -50 c33 -7 23 -9 -54 -10 -52 0 -92 -3 -90 -6 3 -2 41 -7 85 -10
43 -3 96 -8 118 -11 25 -4 37 -3 32 4 -4 6 2 8 16 4 14 -3 19 -2 14 6 -8 13
-1 15 31 6 13 -4 20 -10 18 -15 -3 -4 36 -8 87 -8 72 1 87 3 68 11 -14 5 -44
8 -67 5 -24 -2 -50 1 -58 7 -12 8 20 8 122 1 76 -5 128 -11 116 -13 -13 -2
-23 -8 -23 -13 0 -5 10 -7 23 -4 12 3 78 6 147 8 120 4 127 3 165 -22 22 -14
45 -24 50 -22 6 1 34 0 63 -4 44 -5 55 -11 62 -31 6 -15 18 -24 32 -25 23 0
23 0 -2 -11 -35 -14 -81 -12 -199 12 -124 24 -135 25 -127 5 4 -11 -2 -15 -25
-15 -53 0 -342 32 -364 40 -24 9 98 3 209 -10 105 -13 122 -11 61 6 -72 21
-334 31 -345 14 -7 -11 -25 -12 -102 -2 -51 6 -138 14 -193 17 -55 3 -127 10
-160 15 -33 5 -87 12 -119 16 -38 4 -54 9 -46 14 9 6 -3 10 -35 13 -28 2 37 3
143 1 116 -2 192 1 192 7 0 5 -10 9 -22 9 -13 0 -30 5 -38 10 -19 12 157 13
215 1z m289 -208 c26 -16 -48 -24 -258 -28 -252 -4 -451 6 -482 23 -14 8 6 10
84 9 56 -2 102 1 102 5 0 9 539 0 554 -9z m799 -47 c26 -3 35 -1 30 7 -3 7 4
3 16 -8 13 -11 35 -25 49 -32 27 -11 27 -11 -11 -12 -26 -1 -36 3 -31 10 4 8
-1 9 -17 3 -13 -5 -106 -8 -207 -7 -100 1 -180 -2 -178 -6 9 -14 92 -31 152
-31 32 0 55 -3 51 -6 -3 -3 -83 -3 -177 1 -136 6 -174 11 -187 24 -15 14 -14
16 8 22 24 7 24 7 -3 8 -31 1 -48 20 -21 23 10 1 86 2 170 2 120 1 149 -2 141
-11 -8 -10 -6 -13 6 -13 9 0 16 5 16 10 0 6 15 10 33 11 26 0 29 2 12 9 -19 7
49 5 148 -4z m-1264 -52 c2 -2 -7 -4 -20 -5 -13 0 -33 -4 -44 -9 -13 -6 4 -8
50 -5 49 3 61 2 40 -4 -19 -6 41 -9 165 -9 111 0 184 3 170 8 -33 11 67 13
125 3 l40 -7 -30 -7 c-21 -5 -6 -7 45 -8 41 -1 100 -3 130 -6 39 -4 49 -3 35
4 -18 9 -18 10 7 10 15 1 30 -4 33 -10 4 -5 18 -14 31 -19 15 -6 22 -15 18
-25 -4 -10 0 -15 12 -15 11 -1 30 -7 43 -14 l25 -14 -35 -7 c-19 -4 -50 -16
-70 -27 -31 -17 -49 -19 -130 -15 -148 7 -322 28 -349 42 l-25 13 29 8 c15 3
61 4 102 1 41 -3 74 -2 74 3 0 9 -31 13 -220 29 -119 10 -295 34 -342 46 -15
4 -29 13 -32 22 -5 11 -1 13 17 8 22 -7 22 -7 2 9 -19 15 -16 15 40 10 33 -4
62 -8 64 -10z m208 -175 c27 -6 71 -17 98 -25 28 -7 84 -15 125 -19 126 -10
170 -17 165 -25 -3 -5 1 -10 7 -13 9 -3 7 -7 -6 -12 -10 -5 -33 -3 -50 3 -17
6 -41 9 -54 6 -29 -8 -344 15 -355 25 -4 4 38 6 95 4 79 -2 97 -1 78 7 -13 6
-35 8 -47 5 -12 -3 -48 -2 -78 1 -41 5 -55 10 -51 20 3 8 1 14 -4 14 -6 0 -10
-9 -10 -20 0 -23 -23 -25 -100 -10 -38 8 -34 8 23 4 55 -5 67 -3 67 10 0 11
-11 15 -40 14 -23 0 -44 3 -48 7 -4 4 17 5 46 4 28 -2 52 -1 52 4 0 10 32 9
87 -4z m709 -8 c-3 -5 40 -12 97 -15 157 -10 158 -10 170 -26 7 -9 21 -14 32
-12 11 2 17 1 13 -3 -4 -4 -28 -9 -54 -11 -25 -3 -56 -10 -67 -16 -24 -13
-169 -15 -259 -4 -47 6 -58 11 -58 26 0 17 -1 17 -37 -1 -21 -10 -52 -19 -69
-19 -38 0 -84 33 -68 49 9 10 111 16 154 9 26 -4 110 14 110 23 0 5 9 9 21 9
11 0 18 -4 15 -9z m-1017 -82 c33 -18 57 -19 279 -18 134 0 246 -2 250 -5 3
-3 -15 -6 -40 -6 -25 0 -79 -7 -119 -15 -87 -17 -322 -45 -383 -45 -24 0 -57
7 -75 16 -22 11 -74 17 -182 21 -93 4 -145 9 -135 15 8 5 29 6 47 3 17 -3 37
-1 45 6 8 6 21 8 30 5 8 -3 23 1 31 10 12 11 18 12 23 4 5 -9 9 -9 14 -1 5 7
39 9 99 6 l92 -4 -70 14 c-98 21 -102 26 -16 19 44 -3 88 -13 110 -25z m854
-164 c70 -5 93 -11 115 -29 15 -13 36 -28 46 -33 18 -10 17 -12 -13 -27 -26
-14 -30 -20 -21 -31 9 -11 7 -15 -14 -21 -33 -8 -33 -21 1 -37 21 -9 27 -9 31
1 2 6 18 12 35 12 25 1 28 3 16 10 -11 6 -15 18 -11 35 4 21 10 25 38 25 19 0
34 -4 34 -10 0 -14 63 -13 78 2 7 7 39 11 78 10 36 0 63 2 60 5 -3 3 -48 12
-101 20 -114 17 -172 36 -82 28 31 -3 57 -1 57 4 0 5 18 8 40 8 22 -1 40 -5
40 -8 0 -3 28 -7 61 -8 34 -1 69 -5 78 -10 24 -12 101 -20 101 -11 0 5 -6 11
-12 14 -7 3 5 3 27 -1 45 -6 59 -13 29 -13 -11 0 -26 -6 -33 -12 -8 -9 -39
-12 -96 -11 -55 2 -86 -1 -91 -9 -5 -8 6 -9 42 -5 28 4 43 3 34 -2 -8 -5 -51
-11 -95 -14 -45 -3 -98 -13 -120 -23 l-40 -19 35 -4 c32 -4 33 -4 10 -11 -14
-3 -36 -3 -50 0 -25 7 -145 -12 -158 -24 -3 -3 9 -6 26 -6 17 0 34 -4 37 -10
3 -5 20 -10 37 -10 23 0 29 -4 24 -16 -4 -11 1 -18 15 -21 16 -5 18 -8 7 -15
-10 -7 -8 -12 10 -25 12 -8 22 -21 22 -29 0 -7 19 -18 43 -24 68 -18 66 -20
-19 -17 -60 1 -87 7 -101 19 -19 17 -140 59 -228 78 -65 14 -135 41 -135 51 0
5 -22 18 -49 30 -27 11 -52 27 -55 35 -3 8 -14 14 -25 14 -24 0 -73 25 -64 33
3 4 -1 7 -11 7 -9 0 -36 10 -59 22 -31 16 -37 23 -24 26 11 2 16 10 13 20 -5
14 2 17 45 18 30 0 54 6 59 14 4 7 30 18 56 25 39 10 58 10 94 0 25 -7 85 -16
133 -20z m-618 -85 c4 -6 15 -6 31 0 14 6 51 9 82 9 l57 -1 -48 -10 c-40 -9
-48 -14 -44 -28 3 -13 0 -17 -9 -13 -10 4 -12 0 -8 -11 8 -22 21 -20 34 4 8
15 8 20 -1 20 -7 0 -10 3 -7 6 3 3 23 -2 43 -10 21 -9 50 -16 66 -16 18 0 32
-7 39 -20 6 -12 7 -19 1 -18 -5 2 -17 -6 -26 -17 -9 -11 -14 -15 -11 -9 8 16
-16 24 -70 24 -62 0 -110 22 -118 54 -9 35 -23 33 -22 -3 1 -25 7 -31 37 -40
20 -6 42 -18 49 -26 7 -8 24 -16 39 -16 24 -2 24 -2 3 -6 -13 -3 -42 7 -68 21
-26 14 -54 26 -64 26 -10 0 -21 7 -24 16 -3 8 -2 12 4 9 6 -3 10 1 10 10 0 12
-5 15 -16 11 -9 -3 -22 -6 -31 -6 -9 0 -13 -6 -9 -15 5 -13 2 -14 -17 -3 -21
11 -20 12 26 27 51 16 60 27 25 34 -17 3 -15 5 9 6 17 0 34 -3 38 -9z m1474
-301 c29 -10 35 -19 32 -46 -1 -6 6 -14 16 -16 20 -5 14 -6 -102 -11 -38 -2
-104 -7 -146 -11 -72 -7 -78 -6 -88 14 -10 19 -9 22 14 31 15 6 40 10 56 10
17 0 40 5 52 12 50 27 118 34 166 17z m-99 -250 c41 -1 66 -4 56 -6 -15 -4
-16 -7 -5 -14 9 -6 -3 -9 -36 -8 -37 0 -45 3 -30 9 17 7 15 9 -12 9 -30 1 -38
-7 -34 -33 1 -4 -11 -5 -26 -2 -18 4 -23 3 -14 -2 10 -7 10 -11 1 -17 -6 -4
-14 -5 -17 -1 -3 3 -12 -1 -20 -9 -12 -12 -18 -12 -48 2 -34 16 -36 16 -58 -5
-19 -18 -38 -22 -122 -26 -55 -3 -114 -8 -132 -11 -32 -7 -48 -28 -37 -47 4
-5 -13 10 -37 34 l-44 43 30 7 c17 4 72 12 123 18 57 6 109 18 134 31 40 20
188 41 233 33 11 -2 54 -4 95 -5z"/>
</g>
</svg>
